# xmcd CD database file
#
# Track frame offsets:
#	150
#	16641
#	45224
#	73911
#	91796
#	111002
#	136195
#	156416
#	173012
#	196681
#	226419
#
# Disc length: 3260 seconds
#
# Revision: 2
# Processed by: cddbd v1.5.2PL0 Copyright (c) Steve Scherf et al.
# Submitted via: CDex 1.51
#
DISCID=7b0cba0b
DTITLE=Marc Benno And Bluesland - Live In Concert Gillespie County
DYEAR=2002
DGENRE=Blues
TTITLE0=Found True Love
TTITLE1=Sweet Sixteen
TTITLE2=Linda Lou
TTITLE3=Unchain My Heart
TTITLE4=Sick And Tired
TTITLE5=Ramblin
TTITLE6=Don't Have To Go
TTITLE7=Sweet Home Chicago
TTITLE8=My Getaway
TTITLE9=Wig
TTITLE10=Killin Floor
EXTD=YEAR: 2002
EXTT0=
EXTT1=
EXTT2=
EXTT3=
EXTT4=
EXTT5=
EXTT6=
EXTT7=
EXTT8=
EXTT9=
EXTT10=
PLAYORDER=
